<?xml version="1.0" encoding="UTF-8" standalone="no"?>
<!-- Created with Inkscape (http://www.inkscape.org/) -->

<svg
   width="181.48036mm"
   height="151.62608mm"
   viewBox="0 0 181.48036 151.62608"
   version="1.1"
   id="svg1"
   xml:space="preserve"
   xmlns="http://www.w3.org/2000/svg"
   xmlns:svg="http://www.w3.org/2000/svg"><defs
     id="defs1"><linearGradient
       id="swatch2"><stop
         style="stop-color:#00c200;stop-opacity:1;"
         offset="0"
         id="stop2" /></linearGradient></defs><g
     id="layer1"
     transform="translate(-17.342785,-82.285085)"><path
       style="fill:#f49221;fill-opacity:1;stroke-width:1.31061"
       d="m 93.285963,233.17446 c -2.36548,-0.91732 -5.20952,-3.20254 -6.409632,-5.15019 -2.636061,-4.27802 -4.356174,-11.90507 -4.361204,-19.33781 l -0.0026,-4.57373 3.021955,4e-4 3.021954,3.9e-4 0.02704,6.80443 c 0.03868,9.73385 1.917467,14.94138 6.624925,18.36249 2.815108,2.04586 5.525109,2.67683 9.903129,2.30573 2.97668,-0.2523 3.28091,-0.21173 2.36503,0.31535 -3.50245,2.0156 -10.626984,2.65471 -14.190086,1.27294 z m 7.986747,-8.99262 c -3.567669,-2.38268 -5.736769,-10.00223 -4.636085,-16.28552 0.686027,-3.91618 1.866218,-6.46648 3.970745,-8.58043 1.16237,-1.16759 1.83371,-1.45021 3.4448,-1.45021 2.51224,0 4.60431,1.85937 6.36008,5.6527 1.01845,2.20033 1.20452,3.42947 1.20452,7.95694 0,6.04754 -1.057,9.25185 -3.98628,12.08444 -1.86949,1.8078 -4.23568,2.03932 -6.35778,0.62208 z m -46.238113,-4.64658 c -1.093335,-0.33117 -2.783241,-1.06485 -3.755343,-1.6304 -2.395968,-1.39389 -6.079992,-6.20644 -4.751062,-6.20644 1.252724,0 4.000752,1.50767 4.629443,2.53987 1.208207,1.98372 3.522665,3.74485 6.390385,4.86261 2.418293,0.94259 2.50209,1.02474 1.051126,1.03037 -0.867177,0.004 -2.471226,-0.26485 -3.564549,-0.59601 z m 9.082903,-1.14357 c 0,-1.14831 0.196674,-1.33865 1.383228,-1.33865 2.631617,0 5.974582,-4.23179 5.974582,-7.56311 0,-1.34793 1.270484,-0.93002 1.470424,0.48369 0.08606,0.60873 -0.567899,2.27608 -1.453345,3.70521 l -1.609885,2.59843 3.818358,-0.30683 c 2.100107,-0.16874 4.70525,-0.42146 5.789204,-0.56158 1.924844,-0.2488 1.970844,-0.22184 1.970844,1.15494 0,0.77533 -0.295621,1.49388 -0.656943,1.59678 -0.675346,0.19231 -14.69002,1.56978 -15.97141,1.56978 -0.444129,0 -0.715057,-0.50719 -0.715057,-1.33866 z m 71.73869,0.26752 c -3.99609,-1.49531 -6.3574,-5.46433 -7.05048,-11.85082 -0.45939,-4.23302 -0.16851,-4.92676 2.06578,-4.92676 1.59042,0 2.09411,0.65838 2.09411,2.73727 0,2.18139 1.62224,7.60481 2.93866,9.82437 1.38235,2.33076 3.483,3.94502 5.14698,3.95525 0.91034,0.006 0.96887,0.0852 0.3233,0.43939 -1.10029,0.6037 -3.64795,0.5212 -5.51835,-0.1787 z m -87.505418,-8.74037 c -5.925663,-1.9261 -11.078266,-3.66903 -11.45023,-3.87317 -0.395129,-0.21688 -0.832098,-1.82686 -1.05111,-3.8727 l -0.374839,-3.50151 -4.437306,-1.51844 c -2.440523,-0.83513 -4.76763,-1.51843 -5.171366,-1.51843 -0.566282,0 -0.709944,0.68839 -0.628584,3.01197 0.05795,1.65659 0.07923,3.15975 0.0471,3.34037 -0.06503,0.3667 -5.731319,-1.31339 -6.759153,-2.00415 -0.361323,-0.24282 -0.656945,-0.83204 -0.656945,-1.30938 0,-0.6648 0.245941,-0.80159 1.051111,-0.58461 1.015442,0.27363 1.051123,0.0802 1.051123,-5.69913 0,-5.9482 -0.008,-5.9853 -1.3139,-6.49066 -1.231966,-0.47659 -1.313889,-0.71755 -1.313889,-3.86448 0,-1.84591 0.172799,-3.3562 0.384009,-3.3562 0.211209,0 1.60299,0.42897 3.092861,0.95327 2.308894,0.8125 2.80819,1.20876 3.381511,2.68368 0.369943,0.95175 0.929292,1.90676 1.24298,2.12225 0.464687,0.31923 6.619521,1.82651 7.458391,1.82651 0.128485,0 1.161339,-1.24566 2.295122,-2.76811 l 2.061439,-2.76811 4.626069,0.1439 c 2.544343,0.0791 7.582339,0.2706 11.195546,0.42545 l 6.569478,0.28157 0.138027,15.95229 c 0.07588,8.77375 -0.04229,15.93822 -0.262778,15.92105 -0.220444,-0.0171 -5.249085,-1.60713 -11.174746,-3.53323 z m 9.460041,-9.57263 c 0,-4.28036 -0.210273,-7.89281 -0.467256,-8.02766 -0.256996,-0.13484 -3.601701,-0.37988 -7.432688,-0.5445 l -6.96544,-0.2993 0.380074,6.65365 c 0.209041,3.65951 0.538363,6.78976 0.731826,6.95612 0.411391,0.35375 11.480726,2.94466 12.83375,3.0039 0.842589,0.0369 0.919734,-0.61247 0.919734,-7.74221 z m 84.845947,10.25826 c -3.0914,-4.00583 -3.55407,-13.03115 -0.95117,-18.5544 2.29609,-4.87218 5.8993,-2.38299 7.15716,4.94433 1.00269,5.84098 -0.90569,13.55877 -3.56713,14.42588 -1.38279,0.45052 -1.74897,0.33732 -2.63886,-0.81581 z m -21.10154,-10.3827 c 0.006,-10.47325 -0.66772,-14.30903 -3.42183,-19.43097 -1.74438,-3.24413 -5.13663,-6.33316 -7.51021,-6.83895 -0.76023,-0.16201 -2.45114,-0.17015 -3.75758,-0.0181 -7.560324,0.87982 -13.406357,5.99053 -16.146034,14.11517 -0.687204,2.03793 -1.880636,8.98752 -1.896534,11.04388 -0.0026,0.38384 -0.987645,0.55778 -3.157654,0.55778 h -3.153357 l 0.0093,-11.26699 c 0.0093,-12.24722 0.479126,-15.49695 2.798553,-19.38313 1.609923,-2.69742 4.364175,-5.02568 7.613584,-6.436 2.256349,-0.97931 3.18271,-1.07679 11.453012,-1.20513 8.9066,-0.13822 9.01337,-0.1285 10.49808,0.9558 1.35302,0.98812 1.51927,1.41971 1.69683,4.40515 0.10834,1.82035 -0.057,4.09019 -0.36718,5.0441 -0.55101,1.69432 -0.49731,1.80966 2.32511,4.9935 l 2.88918,3.25912 3.27224,-0.0528 c 5.5615,-0.0897 6.15325,-0.32174 7.26268,-2.84762 2.00962,-4.57533 6.12968,-7.37111 10.83564,-7.35279 7.67688,0.0299 12.14446,5.43603 12.52936,15.1616 0.16903,4.27074 0.14309,4.43105 -0.29371,1.8119 -0.90493,-5.4266 -2.45381,-8.83097 -5.00223,-10.99468 -3.28628,-2.79015 -5.16136,-2.75267 -8.60609,0.17206 -3.88051,3.29466 -5.69664,8.75639 -6.20847,18.67092 l -0.3029,5.86736 -3.40955,0.31 c -2.59566,0.23602 -3.51636,0.16688 -3.85712,-0.28963 -0.73069,-0.97887 -0.54933,-4.01244 0.89688,-15.00098 0.30139,-2.29002 0.23501,-2.76388 -0.36468,-2.60302 -0.40321,0.10814 -1.3835,0.31765 -2.17842,0.46553 l -1.44529,0.26889 -0.007,11.70471 c -0.003,6.43759 -0.1818,11.90551 -0.39416,12.15092 -0.21236,0.24543 -0.88565,0.80367 -1.49612,1.24055 l -1.10998,0.79432 z m 44.14807,4.22562 c -2.47036,-2.29384 -4.33017,-7.55418 -4.34844,-12.29925 l -0.007,-2.37093 1.70807,0.13983 1.70807,0.13983 0.30393,5.35461 c 0.23413,4.12462 0.56613,5.85451 1.44529,7.53087 0.62775,1.19694 1.14133,2.25112 1.14133,2.34264 0,0.47589 -0.99507,0.0483 -1.94912,-0.8376 z m 3.28569,-0.44622 c -0.94589,-1.92653 -1.71021,-5.56601 -2.16226,-10.2962 l -0.36997,-3.87121 h 2.96286 2.96284 l 0.003,2.34264 c 0.007,5.46953 2.22671,11.49249 4.50432,12.23455 1.82056,0.59316 0.43577,1.04043 -3.22123,1.04043 h -3.96849 z M 64.1175,200.93288 c 0,-0.72069 0.295622,-1.38058 0.656943,-1.4664 0.609566,-0.14481 7.406997,-0.86121 13.966371,-1.47196 l 2.798257,-0.26055 -0.170467,1.51606 -0.170471,1.51607 -5.255578,0.50309 c -2.890566,0.27671 -6.733711,0.60906 -8.540323,0.73856 l -3.284732,0.23547 z m 122.96211,-1.88315 c -1.42947,-2.74372 -2.28948,-11.56802 -1.89813,-19.47616 0.18552,-3.74877 0.54514,-6.53106 0.85555,-6.6189 0.80947,-0.2291 0.65055,-0.96415 -0.7678,-3.55082 l -1.29302,-2.35811 5.37122,0.12701 5.37123,0.12702 1.16311,3.93423 c 1.56604,5.297 2.43411,12.40754 1.88942,15.47624 -0.36663,2.0655 -0.62199,2.47677 -1.6123,2.59674 -0.91842,0.11124 -1.24883,0.52548 -1.50528,1.8871 -0.41231,2.18922 -1.47385,3.51697 -2.27599,2.84675 -0.31481,-0.26301 -0.75114,-1.3674 -0.96967,-2.45419 -0.36557,-1.81831 -0.52194,-1.97599 -1.95942,-1.97599 -1.5245,0 -1.55832,0.0484 -1.40382,2.00798 0.24107,3.05798 1.61046,6.18715 3.06069,6.99392 1.21186,0.67418 1.23344,0.75851 0.39526,1.54488 -0.48763,0.45748 -1.4545,0.83178 -2.1486,0.83178 -0.98372,0 -1.48479,-0.42765 -2.27245,-1.93948 z m 0.90304,-17.33155 c -0.16779,-0.35596 -0.29232,-0.25023 -0.31751,0.26959 -0.0228,0.47039 0.10123,0.73393 0.27599,0.58566 0.17465,-0.14828 0.19335,-0.53314 0.0414,-0.85525 z m -9.7747,16.21788 c -1.53863,-2.44094 -1.5903,-12.47323 -0.0815,-15.83202 0.84834,-1.88859 2.26872,-1.39875 3.01683,1.04043 0.80285,2.61762 0.79402,11.32609 -0.0145,13.60211 -0.7044,1.98462 -2.06991,2.54057 -2.92156,1.18948 z m -15.00286,-13.20653 c -0.51931,-4.70517 0.71884,-12.1837 2.67535,-16.15937 l 0.73496,-1.4935 h 6.11833 c 5.78463,0 6.07421,0.0426 5.30976,0.78088 -2.66896,2.57762 -4.24284,7.59648 -4.89757,15.61762 l -0.37332,4.57373 h -4.60057 -4.60057 z m -98.720633,1.25109 c -0.201828,-0.17135 -0.366957,-0.77626 -0.366957,-1.34423 0,-1.2339 0.144693,-1.26902 8.918789,-2.16517 8.929873,-0.91206 8.523113,-0.9502 8.326531,0.78083 l -0.164687,1.4502 -5.781133,0.48704 c -3.179629,0.26785 -6.857644,0.62558 -8.173366,0.79495 -1.315721,0.16937 -2.557363,0.16774 -2.759177,-0.004 z m -29.798196,-7.76654 c -3.613213,-0.45542 -8.141568,-1.05382 -10.063027,-1.32978 l -3.493546,-0.50174 -0.308992,-1.86409 c -1.106746,-6.67703 -1.566186,-13.64006 -1.599885,-24.24699 -0.02115,-6.66594 0.102781,-12.2409 0.275452,-12.38881 0.172677,-0.14789 7.233796,-1.75331 15.691381,-3.5676 8.457585,-1.81429 15.563779,-3.46805 15.791545,-3.67503 0.227779,-0.20698 1.176058,-4.49269 2.107304,-9.5238 0.931243,-5.03109 2.807679,-15.17139 4.169841,-22.533976 1.69929,-9.184678 2.292124,-13.42615 1.888722,-13.512749 -0.323365,-0.06948 -4.362502,1.457792 -8.975855,3.393824 -14.806363,6.213624 -22.721369,9.449592 -23.113086,9.449592 -0.210059,0 -0.08754,-0.301187 0.272333,-0.66932 0.359851,-0.368133 0.814137,-0.669333 1.009527,-0.669333 0.349358,0 9.139463,-4.112776 23.216786,-10.862841 l 7.145672,-3.426351 4.942156,1.087612 c 2.718183,0.598188 12.510186,2.711345 21.760012,4.695895 9.249809,1.984549 17.315559,3.788975 17.923849,4.009846 0.60831,0.220858 2.17848,1.931654 3.4893,3.80176 l 2.38331,3.400189 0.33302,6.121102 c 0.50541,9.29019 1.87631,41.14087 2.0208,46.94999 l 0.12767,5.13151 -4.20446,0.31141 c -12.081482,0.89485 -21.034906,5.22625 -24.88623,12.03922 l -1.487729,2.63179 -18.083723,0.0945 -18.083718,0.0945 -0.154409,3.23509 -0.154409,3.23508 -1.685045,-0.0412 c -0.926776,-0.0227 -4.641302,-0.41383 -8.254515,-0.86925 z m 44.35249,-49.28989 3.096182,-1.98507 3.998839,0.31111 c 2.199372,0.17111 4.826595,0.31676 5.838305,0.32365 l 1.839443,0.0125 V 113.53051 99.474656 L 80.935355,95.815288 c -7.08189,-2.012645 -13.280933,-3.669226 -13.775638,-3.68129 -0.972265,-0.02368 -1.522218,1.313194 -2.469082,6.002017 -1.199149,5.938195 -2.70314,31.229615 -1.921005,32.304095 0.230898,0.3172 2.642499,0.48865 6.765861,0.481 l 6.407064,-0.0119 z m 25.875939,-9.70436 c -0.19148,-5.21517 -0.49264,-11.03823 -0.6693,-12.94013 l -0.32118,-3.45801 -2.65533,-0.66951 c -1.460436,-0.36823 -2.967159,-0.6695 -3.34828,-0.6695 -0.764256,0 -0.827909,5.40318 -0.22608,19.18735 l 0.321466,7.36259 2.627794,0.26457 c 1.44529,0.1455 3.07582,0.29609 3.6234,0.33465 0.95846,0.0675 0.98265,-0.28393 0.64751,-9.41201 z m 32.51816,48.30306 c -0.17866,-0.24543 -0.79616,-0.44623 -1.37225,-0.44623 -0.68555,0 -1.23277,-0.45133 -1.58378,-1.30628 -0.32762,-0.79793 -1.09768,-1.47243 -1.97878,-1.73321 -1.36629,-0.40439 -1.53462,-0.78108 -3.18804,-7.13399 -0.96009,-3.68888 -1.91735,-6.94301 -2.12728,-7.2314 -0.22438,-0.30826 -2.82913,-0.69139 -6.32075,-0.92969 -3.26648,-0.22293 -6.00448,-0.46088 -6.08444,-0.52877 -0.25774,-0.21883 -1.66238,-27.75487 -1.43293,-28.09021 0.1899,-0.27749 2.409,-0.9289 10.31665,-3.02839 1.26384,-0.33555 1.53352,-0.24745 1.92607,0.62921 0.2511,0.56068 2.11581,7.42666 4.14386,15.25773 2.02805,7.83108 4.88623,18.84673 6.35147,24.47922 1.46525,5.63251 2.66408,10.30106 2.66408,10.37457 0,0.33134 -1.02218,0.0882 -1.31388,-0.31256 z m 2.92875,-5.20562 c -0.30865,-0.94092 -3.66,-12.05119 -7.44748,-24.68949 l -6.88631,-22.97872 0.43994,-4.24056 c 0.32903,-3.17164 0.48145,-3.71941 0.60461,-2.17311 0.1993,2.50188 -4.32176,0.95383 35.72186,12.23151 27.16302,7.65003 31.17495,8.89338 31.39621,9.73002 0.13946,0.52758 0.61267,3.37867 1.05147,6.33576 0.43879,2.95709 1.49932,9.57879 2.35677,14.71487 0.85743,5.13608 1.38795,9.47321 1.17893,9.63807 -0.20903,0.16484 -5.34657,0.52534 -11.41675,0.8011 -6.07019,0.27575 -14.58424,0.69303 -18.92008,0.92729 -4.33586,0.23425 -10.36663,0.53594 -13.40173,0.67041 -3.0351,0.13449 -7.4529,0.35681 -9.81733,0.49407 l -4.29898,0.24954 z m -27.57449,-47.08064 c -0.16455,-1.5519 -0.55147,-5.90361 -0.85983,-9.67048 l -0.56064,-6.848841 -2.84044,-3.602108 c -1.56222,-1.981153 -2.71332,-3.776729 -2.55795,-3.990163 0.15536,-0.213435 2.03791,-1.0765 4.18344,-1.917925 l 3.90092,-1.529853 4.46371,1.758944 4.46368,1.758956 0.0121,2.131788 0.0122,2.131795 0.99004,-1.093735 0.99002,-1.093739 2.14729,1.263428 c 1.84353,1.084681 3.73264,3.246105 3.73264,4.270662 0,0.169998 -1.2391,-0.04711 -2.75357,-0.482357 -1.51445,-0.435292 -2.83295,-0.724036 -2.92998,-0.641648 -0.42763,0.363065 -0.54521,2.27027 -0.58294,9.453796 l -0.0403,7.66046 -5.1242,1.44098 c -2.8183,0.79252 -5.39915,1.52663 -5.73519,1.63132 -0.40544,0.12632 -0.71161,-0.75876 -0.91016,-2.63128 z"
       id="path46" /><text
       xml:space="preserve"
       style="font-style:normal;font-variant:normal;font-weight:normal;font-stretch:normal;font-size:6.42536px;font-family:sans-serif;-inkscape-font-specification:'sans-serif, ';font-variant-ligatures:normal;font-variant-caps:normal;font-variant-numeric:normal;font-variant-east-asian:normal;fill:#0000ff;fill-opacity:1;stroke-width:0.344215"
       x="199.15666"
       y="121.29909"
       id="text7"
       transform="matrix(0.73576156,-0.03504925,-0.04393281,1.3612288,0,0)"><tspan
         id="tspan7"
         style="font-style:normal;font-variant:normal;font-weight:normal;font-stretch:normal;font-size:6.42536px;font-family:sans-serif;-inkscape-font-specification:'sans-serif, ';font-variant-ligatures:normal;font-variant-caps:normal;font-variant-numeric:normal;font-variant-east-asian:normal;fill:#0000ff;fill-opacity:1;stroke-width:0.344215"
         x="199.15666"
         y="121.29909">SIGGS COACH BUILDERS</tspan></text></g></svg>
