<?xml version="1.0" encoding="UTF-8" standalone="no"?>
<!-- Created with Inkscape (http://www.inkscape.org/) -->

<svg
   width="99.876068mm"
   height="135.46846mm"
   viewBox="0 0 99.876068 135.46846"
   version="1.1"
   id="svg1"
   xml:space="preserve"
   xmlns:xlink="http://www.w3.org/1999/xlink"
   xmlns="http://www.w3.org/2000/svg"
   xmlns:svg="http://www.w3.org/2000/svg"><defs
     id="defs1"><linearGradient
       id="linearGradient18"><stop
         style="stop-color:#000000;stop-opacity:0.91511937;"
         offset="0"
         id="stop18" /><stop
         style="stop-color:#ffffff;stop-opacity:1;"
         offset="1"
         id="stop19" /></linearGradient><linearGradient
       xlink:href="#linearGradient18"
       id="linearGradient19"
       x1="136.19652"
       y1="115.59538"
       x2="93.277458"
       y2="116.73989"
       gradientUnits="userSpaceOnUse" /></defs><g
     id="layer1"
     transform="translate(-35.327863,-63.312014)"><path
       d="m 108.03122,146.10014 c 2.59292,-1.77271 6.19125,-3.30729 6.19125,-3.30729 0,0 -10.23937,1.85208 -20.42583,2.69875 -12.461875,1.03187 -25.849792,1.24354 -32.570209,0.34396 -15.901458,-2.11667 8.73125,-7.96396 8.73125,-7.96396 0,0 -9.551458,-0.635 -21.325416,5.02708 -13.890625,6.72042 34.395833,9.78959 59.398955,3.20146 z m -22.595414,-8.49312 c -5.027083,-11.29771 -21.986875,-21.21959 0,-38.576255 27.426704,-21.642917 13.361459,-35.71875 13.361459,-35.71875 5.688545,22.357292 -20.0025,29.130625 -29.289375,43.021255 -6.323542,9.49854 3.095625,19.685 15.927916,31.27375 z M 115.75706,90.987432 c 0.0265,0 -46.355004,11.588748 -24.209379,37.094588 6.535209,7.51416 -1.719791,14.2875 -1.719791,14.2875 0,0 16.58937,-8.5725 8.969375,-19.28813 -7.117292,-10.00125 -12.567709,-14.97542 16.959795,-32.093958 z m -1.61396,71.569788 a 3.2252708,3.2252708 0 0 1 -0.52917,0.68792 c 33.94603,-8.91646 21.45771,-31.45896 5.23875,-25.74396 a 4.5852292,4.5852292 0 0 0 -2.16958,1.66688 18.639896,18.639896 0 0 1 2.91041,-0.79375 c 8.20209,-1.71979 19.97605,10.98021 -5.45041,24.18291 z m 12.47775,16.48355 c 0,0 3.83646,3.14854 -4.20688,5.60917 -15.31937,4.6302 -63.711664,6.0325 -77.152497,0.1852 -4.841875,-2.0902 4.233333,-5.02708 7.090833,-5.63562 2.963334,-0.635 4.683125,-0.52917 4.683125,-0.52917 -5.371041,-3.78354 -34.739791,7.43479 -14.9225,10.63625 54.0385,8.78417 98.530839,-3.94229 84.507919,-10.26583 z M 67.470598,168.08702 c -20.822708,5.82083 12.673542,17.83292 39.184792,6.48229 a 49.183396,49.183396 0 0 1 -7.46125,-3.65125 c -11.826875,2.24896 -17.30375,2.40771 -28.045834,1.19063 -8.863541,-1.00542 -3.677708,-4.02167 -3.677708,-4.02167 z m 47.572082,25.7175 c -20.822707,3.91583 -46.513749,3.46604 -61.72729,0.9525 0,-0.0265 3.122083,2.56646 19.155833,3.59833 24.394583,1.56104 61.859587,-0.87312 62.732707,-12.40896 0,0 -1.69333,4.36563 -20.16125,7.85813 z m -11.53583,-37.09459 c -15.663335,3.01625 -24.738544,2.93688 -36.195002,1.74625 -8.863542,-0.92604 -3.069167,-5.21229 -3.069167,-5.21229 -22.965833,7.62 12.752917,16.24542 44.846879,6.85271 a 15.972896,15.972896 0 0 1 -5.58271,-3.38667 z"
       id="path1"
       style="fill:url(#linearGradient19);fill-opacity:1;stroke-width:0.264583" /></g></svg>
